<?xml version="1.0" standalone="no"?>
<!DOCTYPE svg PUBLIC "-//W3C//DTD SVG 20010904//EN"
 "http://www.w3.org/TR/2001/REC-SVG-20010904/DTD/svg10.dtd">
<svg version="1.0" xmlns="http://www.w3.org/2000/svg"
 width="400.000000pt" height="400.000000pt" viewBox="0 0 400.000000 400.000000"
 preserveAspectRatio="xMidYMid meet">
<metadata>
Created by potrace 1.14, written by Peter Selinger 2001-2017
</metadata>
<g transform="translate(0.000000,400.000000) scale(0.100000,-0.100000)"
fill="#000000" stroke="none">
<path d="M340 3320 l0 -340 335 0 335 0 0 -1010 0 -1010 -335 0 -335 0 0 -345
0 -345 340 0 340 0 0 340 0 340 335 0 335 0 0 -340 0 -340 345 0 345 0 0 340
0 340 330 0 330 0 0 -340 0 -340 345 0 345 0 0 345 0 345 -340 0 -340 0 0
1010 0 1010 340 0 340 0 0 340 0 340 -680 0 -680 0 0 -675 0 -675 -335 0 -335
0 0 675 0 675 -680 0 -680 0 0 -340z m2030 -2030 l0 -330 -335 0 -335 0 0 330
0 330 335 0 335 0 0 -330z"/>
</g>
</svg>
