<svg width="600" height="160" xmlns="http://www.w3.org/2000/svg" xmlns:xlink="http://www.w3.org/1999/xlink">
 <!-- Created with Method Draw - http://github.com/duopixel/Method-Draw/ -->

 <g>
  <title>background</title>
  <rect fill="#fff" id="canvas_background" height="162" width="602" y="-1" x="-1"/>
  <g display="none" overflow="visible" y="0" x="0" height="100%" width="100%" id="canvasGrid">
   <rect fill="url(#gridpattern)" stroke-width="0" y="0" x="0" height="100%" width="100%"/>
  </g>
 </g>
 <g>
  <title>Layer 1</title>
  <linearGradient id="svg_68">
   <stop stop-color="#5a5a5a" offset="0"/>
   <stop stop-color="#464646" offset="1"/>
  </linearGradient>
  <linearGradient y2="0.500003" y1="0.500003" xlink:href="#svg_68" x2="0.787054" x1="-0.219663" id="svg_67"/>
  <linearGradient id="svg_69">
   <stop stop-opacity="0" stop-color="#464646" offset="0"/>
   <stop stop-color="#202020" offset="1"/>
  </linearGradient>
  <linearGradient y2="0.500003" y1="0.500003" xlink:href="#svg_69" x2="0.787054" x1="-0.219663" id="svg_66"/>
  <linearGradient y2="0.49999" y1="0.49999" xlink:href="#svg_68" x2="0.760205" x1="0.002548" id="svg_65"/>
  <linearGradient y2="0.752063" y1="0.278666" xlink:href="#svg_69" x2="0.5" x1="0.5" id="svg_64"/>
  <linearGradient id="svg_70">
   <stop stop-color="#76ccf8" offset="0"/>
   <stop stop-color="#518ef8" offset="0.833"/>
   <stop stop-color="#4981f8" offset="1"/>
  </linearGradient>
  <linearGradient y2="1.333693" y1="0.160076" xlink:href="#svg_70" x2="1.070534" x1="0.148257" id="svg_63"/>
  <linearGradient id="svg_71">
   <stop stop-opacity="0" stop-color="#4071f7" offset="0"/>
   <stop stop-color="#30569f" offset="1"/>
  </linearGradient>
  <linearGradient y2="0.042075" y1="0.230762" xlink:href="#svg_71" x2="0.048558" x1="0.263953" id="svg_62"/>
  <linearGradient y2="-0.075992" y1="0.479977" xlink:href="#svg_71" x2="-0.08838" x1="0.561802" id="svg_61"/>
  <linearGradient y2="0.055552" y1="0.238003" xlink:href="#svg_71" x2="0.06758" x1="0.288157" id="svg_60"/>
  <linearGradient y2="-0.050719" y1="0.478519" xlink:href="#svg_71" x2="-0.063847" x1="0.606009" id="svg_59"/>
  <linearGradient y2="0.751313" y1="0.127051" x2="0.751313" x1="0.127051" id="svg_58">
   <stop stop-color="#e38523" offset="0"/>
   <stop stop-color="#db4735" offset="0.7304"/>
   <stop stop-color="#d82f3c" offset="1"/>
  </linearGradient>
  <linearGradient y2="0.751333" y1="0.127072" x2="0.751313" x1="0.127051" id="svg_57">
   <stop stop-color="#9d66d6" offset="0"/>
   <stop stop-color="#453d81" offset="1"/>
  </linearGradient>
  <linearGradient y2="0.751313" y1="0.127051" x2="0.751313" x1="0.127071" id="svg_56">
   <stop stop-color="#f7e07d" offset="0"/>
   <stop stop-color="#e69642" offset="1"/>
  </linearGradient>
  <linearGradient y2="0.751313" y1="0.127051" x2="0.751333" x1="0.127072" id="svg_55">
   <stop stop-color="#7dc03a" offset="0"/>
   <stop stop-color="#3e6e66" offset="1"/>
  </linearGradient>
  <linearGradient y2="0.182915" y1="0.579239" xlink:href="#svg_71" x2="0.129711" x1="0.410763" id="svg_54"/>
  <linearGradient y2="0.176738" y1="0.822585" xlink:href="#svg_71" x2="0.114984" x1="0.700778" id="svg_53"/>
  <linearGradient y2="0.751195" y1="0.127245" xlink:href="#svg_70" x2="0.751201" x1="0.127238" id="svg_52"/>
  <linearGradient y2="0.751195" y1="0.127245" xlink:href="#svg_70" x2="0.751201" x1="0.127238" id="svg_51"/>
  <linearGradient y2="-0.178519" y1="0.419957" xlink:href="#svg_71" x2="-0.159997" x1="0.376402" id="svg_50"/>
  <linearGradient y2="0.144565" y1="0.466691" xlink:href="#svg_71" x2="0.112046" x1="0.361355" id="svg_49"/>
  <linearGradient y2="0.128378" y1="0.382222" xlink:href="#svg_71" x2="0.119253" x1="0.355048" id="svg_48"/>
  <linearGradient y2="0.751311" y1="0.127068" xlink:href="#svg_68" x2="0.751311" x1="0.127068" id="svg_47"/>
  <linearGradient y2="0.873198" y1="0.389145" xlink:href="#svg_69" x2="0.5" x1="0.5" id="svg_46"/>
  <linearGradient y2="0.751311" y1="0.127068" xlink:href="#svg_68" x2="0.751322" x1="0.127068" id="svg_45"/>
  <linearGradient y2="0.950882" y1="0.303871" xlink:href="#svg_69" x2="0.5" x1="0.5" id="svg_44"/>
  <linearGradient y2="1.156117" y1="0.217822" xlink:href="#svg_71" x2="0.499999" x1="0.499999" id="svg_43"/>
  <linearGradient y2="1.156117" y1="0.217822" xlink:href="#svg_71" x2="0.500001" x1="0.500001" id="svg_42"/>
  <linearGradient y2="-0.225815" y1="1.061694" xlink:href="#svg_70" x2="0.499995" x1="0.499995" id="svg_41"/>
  <linearGradient y2="0.865182" y1="0.082408" xlink:href="#svg_68" x2="0.865189" x1="0.082409" id="svg_40"/>
  <linearGradient y2="0.999352" y1="0.786192" xlink:href="#svg_69" x2="0.500004" x1="0.500004" id="svg_39"/>
  <linearGradient y2="0.532983" y1="0.825573" xlink:href="#svg_68" x2="0.532978" x1="0.825571" id="svg_38"/>
  <g stroke="null" id="svg_109">
   <g stroke="null" transform="matrix(0.2526635295615098,0,0,0.24874194474365913,-88.71888918971058,-172.55709616112787) " id="svg_73">
    <path stroke="null" id="svg_74" fill="url(#svg_67)" d="m649.038017,770.548053l0,136.489c0,6.907 5.599,12.505 12.505,12.505c6.907,0 12.506,-5.599 12.506,-12.505l0,-136.489c0.001,-6.906 -5.598,-12.505 -12.505,-12.505c-6.907,0 -12.506,5.599 -12.506,12.505z"/>
    <path stroke="null" id="svg_75" fill="url(#svg_66)" d="m649.038017,770.548053l0,136.489c0,6.907 5.599,12.505 12.505,12.505c6.907,0 12.506,-5.599 12.506,-12.505l0,-136.489c0.001,-6.906 -5.598,-12.505 -12.505,-12.505c-6.907,0 -12.506,5.599 -12.506,12.505z"/>
    <path stroke="null" id="svg_76" fill="url(#svg_65)" d="m726.877017,882.589053l-130.666,0l0,-25.703c0,-12.638 10.245,-22.882 22.882,-22.882l84.902,0c12.638,0 22.882,10.245 22.882,22.882l0,25.703z"/>
    <path stroke="null" id="svg_77" fill="url(#svg_64)" d="m726.877017,882.589053l-130.666,0l0,-25.703c0,-12.638 10.245,-22.882 22.882,-22.882l84.902,0c12.638,0 22.882,10.245 22.882,22.882l0,25.703z"/>
    <g stroke="null" id="svg_78">
     <path stroke="null" id="svg_79" fill="url(#svg_63)" d="m914.324017,1153.677053l-28.98,-132.28c-19.717,-89.997 -99.424,-154.133 -191.556,-154.133l-64.488,0c-92.131,0 -171.839,64.136 -191.556,154.133l-28.98,132.28c-12.873,58.758 31.871,114.366 92.023,114.366c38.21,0 72.635,-23.08 87.147,-58.427c27.015,-65.801 120.204,-65.801 147.22,0c14.512,35.347 48.937,58.427 87.147,58.427c60.152,0 104.896,-55.608 92.023,-114.366z"/>
     <g stroke="null" id="svg_80">
      <path stroke="null" id="svg_81" fill="url(#svg_62)" d="m704.686017,993.723053l207.727,207.74c4.589,-14.894 5.542,-31.215 1.912,-47.786l-5.318,-24.274l-170.119,-169.88c-4.462,-5.738 -39.939,29.74 -34.202,34.2z"/>
      <path stroke="null" id="svg_82" fill="url(#svg_61)" d="m914.324017,1153.677053l-5.304,-24.211l-135.159,-134.97c-4.461,-5.737 -39.938,29.74 -34.202,34.201l172.753,172.764c4.589,-14.893 5.543,-31.213 1.912,-47.784z"/>
     </g>
     <g stroke="null" id="svg_83">
      <path stroke="null" id="svg_84" fill="url(#svg_60)" d="m887.315017,1030.394053l-109.663,-109.509c-4.461,-5.737 -39.938,29.74 -34.202,34.201l163.1,163.111l-19.235,-87.803z"/>
      <path stroke="null" id="svg_85" fill="url(#svg_59)" d="m887.329017,1030.457053l-74.703,-74.598c-4.461,-5.737 -39.938,29.74 -34.202,34.201l128.126,128.134l-19.221,-87.737z"/>
     </g>
     <g stroke="null" id="svg_86">
      <circle stroke="null" id="svg_87" r="24.379999" fill="url(#svg_58)" cy="935.848053" cx="758.258017"/>
      <circle stroke="null" id="svg_88" r="24.379999" fill="url(#svg_57)" cy="1013.094053" cx="758.258017"/>
      <circle stroke="null" id="svg_89" r="24.379999" fill="url(#svg_56)" cy="974.471053" cx="796.881017"/>
      <circle stroke="null" id="svg_90" r="24.379999" fill="url(#svg_55)" cy="974.471053" cx="719.634017"/>
     </g>
     <path stroke="null" id="svg_91" fill="url(#svg_54)" d="m642.976017,1063.279053c-11.36,-13.1 -100.363,75.903 -87.262,87.262l41.817,41.817c34.854,-47.919 113.224,-42.172 137.624,17.258c14.511,35.347 48.936,58.427 87.146,58.427c7.862,0 15.457,-0.958 22.698,-2.741l-202.023,-202.023z"/>
     <path stroke="null" id="svg_92" fill="url(#svg_53)" d="m912.270017,1201.906053l-138.628,-138.627c-11.36,-13.1 -100.363,75.903 -87.262,87.262l31.346,32.636c0.681,0.682 1.351,1.38 2.01,2.093l0.171,0.178l0,0.003c6.174,6.714 11.387,14.765 15.246,24.164c14.513,35.348 48.938,58.428 87.148,58.428c43.018,0 78.15,-28.443 89.969,-66.137z"/>
     <path stroke="null" id="svg_93" fill="url(#svg_52)" d="m596.211017,1165.684053c-34.137,0 -61.908,-27.772 -61.908,-61.908s27.771,-61.908 61.908,-61.908c34.136,0 61.907,27.771 61.907,61.908s-27.771,61.908 -61.907,61.908z"/>
     <path stroke="null" id="svg_94" fill="url(#svg_51)" d="m726.878017,1165.684053c-34.137,0 -61.908,-27.772 -61.908,-61.908s27.771,-61.908 61.908,-61.908c34.136,0 61.907,27.771 61.907,61.908s-27.771,61.908 -61.907,61.908z"/>
     <path stroke="null" id="svg_95" fill="url(#svg_50)" d="m892.487017,1236.675053l-314.625,-313.535c-1.24,-4.23 -5.143,-6.321 -9.774,-6.321l-19.639,0c-5.628,0 -9.191,3.562 -9.191,9.191l0,18.261c0,5.628 -4.562,11.19 -10.191,11.19l-19.26,0c-5.628,0 -9.191,3.562 -9.191,9.19l0,19.639c0,4.631 2.091,8.533 6.321,9.774l166.002,166.997c26.009,3.643 50.418,19.826 62.213,48.555c14.514,35.347 48.939,58.427 87.149,58.427c28.253,0 53.105,-12.269 70.186,-31.368z"/>
     <path stroke="null" id="svg_96" fill="url(#svg_49)" d="m817.740017,1267.920053c-2.366,-8.92 -7.286,-16.799 -13.941,-22.798l-172.74,-172.74c-8.585,-9.524 -75.766,57.657 -66.242,66.243l42.583,42.583c38.035,-35.387 105.448,-25.922 127.754,28.408c13.932,33.934 46.219,56.549 82.586,58.304z"/>
     <path stroke="null" id="svg_97" fill="url(#svg_48)" d="m906.148017,1216.804053l-144.422,-144.422c-8.585,-9.524 -75.766,57.657 -66.242,66.243l129.381,129.381c36.005,-0.95 66.181,-21.853 81.283,-51.202z"/>
     <circle stroke="null" id="svg_98" r="46.908001" fill="url(#svg_47)" cy="1103.776053" cx="596.211017"/>
     <circle stroke="null" id="svg_99" r="46.908001" fill="url(#svg_46)" cy="1103.776053" cx="596.211017"/>
     <circle stroke="null" id="svg_100" r="46.908001" fill="url(#svg_45)" cy="1103.776053" cx="726.877017"/>
     <circle stroke="null" id="svg_101" r="46.908001" fill="url(#svg_44)" cy="1103.776053" cx="726.877017"/>
     <g stroke="null" id="svg_102">
      <path stroke="null" id="svg_103" fill="url(#svg_43)" d="m500.787017,1268.043053c38.21,0 72.635,-23.08 87.147,-58.427c9.036,-22.01 25.48,-36.646 44.371,-43.932l-225.379,0c-4.826,54.105 37.827,102.359 93.861,102.359z"/>
      <path stroke="null" id="svg_104" fill="url(#svg_42)" d="m916.162017,1165.684053l-225.379,0c18.891,7.286 35.335,21.922 44.371,43.932c14.512,35.347 48.937,58.427 87.147,58.427c56.034,0 98.687,-48.254 93.861,-102.359z"/>
     </g>
     <path stroke="null" id="svg_105" fill="url(#svg_41)" d="m688.211017,940.557053l-53.333,0c-14.175,0 -25.667,-11.491 -25.667,-25.667c0,-14.175 11.491,-25.667 25.667,-25.667l53.333,0c14.175,0 25.667,11.491 25.667,25.667c-0.001,14.176 -11.492,25.667 -25.667,25.667z"/>
     <path stroke="null" id="svg_106" fill="url(#svg_40)" d="m606.730017,954.461053l-18.26,0c-5.628,0 -10.191,-4.562 -10.191,-10.191l0,-18.261c0,-5.628 -4.562,-10.191 -10.191,-10.191l-19.639,0c-5.628,0 -10.191,4.562 -10.191,10.191l0,18.261c0,5.628 -4.562,10.191 -10.191,10.191l-18.26,0c-5.628,0 -10.191,4.562 -10.191,10.191l0,19.639c0,5.628 4.562,10.191 10.191,10.191l18.26,0c5.628,0 10.191,4.562 10.191,10.191l0,18.26c0,5.628 4.562,10.191 10.191,10.191l19.639,0c5.628,0 10.191,-4.562 10.191,-10.191l0,-18.26c0,-5.628 4.562,-10.191 10.191,-10.191l18.26,0c5.628,0 10.191,-4.562 10.191,-10.191l0,-19.639c0,-5.629 -4.563,-10.191 -10.191,-10.191z"/>
     <path stroke="null" id="svg_107" fill="url(#svg_39)" d="m606.730017,954.461053l-18.26,0c-5.628,0 -10.191,-4.562 -10.191,-10.191l0,-18.261c0,-5.628 -4.562,-10.191 -10.191,-10.191l-19.639,0c-5.628,0 -10.191,4.562 -10.191,10.191l0,18.261c0,5.628 -4.562,10.191 -10.191,10.191l-18.26,0c-5.628,0 -10.191,4.562 -10.191,10.191l0,19.639c0,5.628 4.562,10.191 10.191,10.191l18.26,0c5.628,0 10.191,4.562 10.191,10.191l0,18.26c0,5.628 4.562,10.191 10.191,10.191l19.639,0c5.628,0 10.191,-4.562 10.191,-10.191l0,-18.26c0,-5.628 4.562,-10.191 10.191,-10.191l18.26,0c5.628,0 10.191,-4.562 10.191,-10.191l0,-19.639c0,-5.629 -4.563,-10.191 -10.191,-10.191z"/>
     <path stroke="null" id="svg_108" fill="url(#svg_38)" d="m588.470017,969.461053c-13.912,0 -25.19,-11.278 -25.19,-25.19l0,-8.442c0,-2.767 -2.243,-5.01 -5.01,-5.01c-2.767,0 -5.01,2.243 -5.01,5.01l0,8.442c0,13.912 -11.278,25.19 -25.19,25.19l-8.441,0c-2.767,0 -5.01,2.243 -5.01,5.01c0,2.767 2.243,5.01 5.01,5.01l8.441,0c13.912,0 25.19,11.278 25.19,25.19l0,8.441c0,2.767 2.243,5.01 5.01,5.01c2.767,0 5.01,-2.243 5.01,-5.01l0,-8.441c0,-13.912 11.278,-25.19 25.19,-25.19l8.441,0c2.767,0 5.01,-2.243 5.01,-5.01c0,-2.767 -2.243,-5.01 -5.01,-5.01l-8.441,0z"/>
    </g>
   </g>
  </g>
  <text fill-opacity="0.98" font-style="normal" font-weight="normal" stroke="#000000" transform="matrix(3.2870872020721436,0,0,3.259259223937988,-487.57539963722223,-139.74073886871338) " xml:space="preserve" text-anchor="start" font-family="Oswald, sans-serif" font-size="29" id="svg_110" y="79" x="196" stroke-width="0" fill="#5b759e">Gamedev</text>
 </g>
</svg>